<svg width="256" height="256" viewBox="0 0 256 256" fill="none" xmlns="http://www.w3.org/2000/svg">
<path fill-rule="evenodd" clip-rule="evenodd" d="M128 0C57.3075 0 0 57.3075 0 128C0 198.693 57.3075 256 128 256C198.693 256 256 198.693 256 128C256 57.3075 198.693 0 128 0ZM32.8205 128C32.8205 75.4339 75.4339 32.8205 128 32.8205C180.567 32.8205 223.179 75.4339 223.179 128C223.179 180.567 180.567 223.179 128 223.179C117.689 223.179 107.76 221.54 98.4615 218.507V182.932C107.254 187.67 117.313 190.359 128 190.359C162.441 190.359 190.359 162.441 190.359 128C190.359 93.5601 162.441 65.641 128 65.641C93.5601 65.641 65.641 93.5601 65.641 128V199.908C45.535 182.457 32.8205 156.713 32.8205 128ZM128 98.4615C111.686 98.4615 98.4615 111.686 98.4615 128C98.4615 144.313 111.686 157.538 128 157.538C144.313 157.538 157.538 144.313 157.538 128C157.538 111.686 144.313 98.4615 128 98.4615Z" fill="white"/>
</svg>
