<svg width="672" height="256" viewBox="0 0 672 256" fill="none" xmlns="http://www.w3.org/2000/svg">
<path fill-rule="evenodd" clip-rule="evenodd" d="M128 0C57.3075 0 0 57.3075 0 128C0 198.693 57.3075 256 128 256C198.693 256 256 198.693 256 128C256 57.3075 198.693 0 128 0ZM32.8205 128C32.8205 75.4339 75.4339 32.8205 128 32.8205C180.567 32.8205 223.179 75.4339 223.179 128C223.179 180.567 180.567 223.179 128 223.179C117.689 223.179 107.76 221.54 98.4615 218.507V182.932C107.253 187.67 117.313 190.359 128 190.359C162.441 190.359 190.359 162.441 190.359 128C190.359 93.5601 162.441 65.641 128 65.641C93.5601 65.641 65.641 93.5601 65.641 128V199.908C45.5351 182.457 32.8205 156.713 32.8205 128ZM128 98.4615C111.686 98.4615 98.4615 111.686 98.4615 128C98.4615 144.313 111.686 157.538 128 157.538C144.313 157.538 157.538 144.313 157.538 128C157.538 111.686 144.313 98.4615 128 98.4615Z" fill="black"/>
<path d="M372.442 73.1358C372.442 82.2344 370.673 89.9098 367.135 96.1618C363.596 102.387 358.821 107.109 352.808 110.329C346.796 113.521 340.091 115.117 332.695 115.117C325.246 115.117 318.515 113.508 312.503 110.289C306.517 107.043 301.754 102.307 298.216 96.082C294.704 89.83 292.948 82.1812 292.948 73.1358C292.948 64.0371 294.704 56.3751 298.216 50.1496C301.754 43.8976 306.517 39.1754 312.503 35.9828C318.515 32.7637 325.246 31.1542 332.695 31.1542C340.091 31.1542 346.796 32.7637 352.808 35.9828C358.821 39.1754 363.596 43.8976 367.135 50.1496C370.673 56.3751 372.442 64.0371 372.442 73.1358ZM349.616 73.1358C349.616 68.2406 348.964 64.1169 347.66 60.7648C346.383 57.386 344.481 54.832 341.954 53.1027C339.453 51.3468 336.367 50.4689 332.695 50.4689C329.024 50.4689 325.924 51.3468 323.397 53.1027C320.896 54.832 318.994 57.386 317.69 60.7648C316.413 64.1169 315.775 68.2406 315.775 73.1358C315.775 78.031 316.413 82.1679 317.69 85.5467C318.994 88.8988 320.896 91.4528 323.397 93.2087C325.924 94.938 329.024 95.8026 332.695 95.8026C336.367 95.8026 339.453 94.938 341.954 93.2087C344.481 91.4528 346.383 88.8988 347.66 85.5467C348.964 82.1679 349.616 78.031 349.616 73.1358ZM382.708 114V32.2715H417.985C424.051 32.2715 429.359 33.4687 433.908 35.8631C438.457 38.2575 441.996 41.623 444.523 45.9595C447.051 50.296 448.314 55.3641 448.314 61.1638C448.314 67.0168 447.011 72.0849 444.403 76.3682C441.823 80.6515 438.191 83.9504 433.509 86.265C428.853 88.5796 423.413 89.7369 417.187 89.7369H396.117V72.4973H412.718C415.325 72.4973 417.546 72.045 419.382 71.1404C421.244 70.2093 422.668 68.8924 423.652 67.1897C424.663 65.487 425.169 63.4784 425.169 61.1638C425.169 58.8226 424.663 56.8273 423.652 55.1779C422.668 53.5018 421.244 52.2248 419.382 51.3468C417.546 50.4423 415.325 49.99 412.718 49.99H404.896V114H382.708ZM456.455 114V32.2715H515.357V50.1496H478.643V64.1967H512.324V82.0748H478.643V96.1219H515.198V114H456.455ZM597.076 32.2715V114H578.559L549.028 71.0606H548.549V114H526.361V32.2715H545.197L574.249 75.0513H574.888V32.2715H597.076ZM293.268 224V142.272H328.545C334.611 142.272 339.918 143.469 344.468 145.863C349.017 148.258 352.555 151.623 355.083 155.959C357.61 160.296 358.874 165.364 358.874 171.164C358.874 177.017 357.57 182.085 354.963 186.368C352.382 190.651 348.751 193.95 344.069 196.265C339.413 198.58 333.972 199.737 327.747 199.737H306.676V182.497H323.277C325.885 182.497 328.106 182.045 329.942 181.14C331.804 180.209 333.227 178.892 334.212 177.19C335.223 175.487 335.728 173.478 335.728 171.164C335.728 168.823 335.223 166.827 334.212 165.178C333.227 163.502 331.804 162.225 329.942 161.347C328.106 160.442 325.885 159.99 323.277 159.99H315.456V224H293.268ZM367.015 224V142.272H402.292C408.358 142.272 413.665 143.376 418.215 145.584C422.764 147.792 426.303 150.971 428.83 155.121C431.357 159.272 432.621 164.247 432.621 170.046C432.621 175.899 431.317 180.834 428.71 184.852C426.13 188.869 422.498 191.902 417.816 193.95C413.16 195.999 407.719 197.023 401.494 197.023H380.423V179.784H397.024C399.632 179.784 401.853 179.464 403.689 178.826C405.551 178.161 406.974 177.11 407.959 175.673C408.97 174.237 409.475 172.361 409.475 170.046C409.475 167.705 408.97 165.803 407.959 164.34C406.974 162.85 405.551 161.759 403.689 161.067C401.853 160.349 399.632 159.99 397.024 159.99H389.203V224H367.015ZM414.903 186.488L435.335 224H411.231L391.278 186.488H414.903ZM521.253 183.136C521.253 192.234 519.484 199.91 515.946 206.162C512.407 212.387 507.632 217.109 501.619 220.329C495.607 223.521 488.902 225.117 481.506 225.117C474.057 225.117 467.326 223.508 461.314 220.289C455.328 217.043 450.566 212.307 447.027 206.082C443.516 199.83 441.76 192.181 441.76 183.136C441.76 174.037 443.516 166.375 447.027 160.15C450.566 153.898 455.328 149.175 461.314 145.983C467.326 142.764 474.057 141.154 481.506 141.154C488.902 141.154 495.607 142.764 501.619 145.983C507.632 149.175 512.407 153.898 515.946 160.15C519.484 166.375 521.253 174.037 521.253 183.136ZM498.427 183.136C498.427 178.241 497.775 174.117 496.471 170.765C495.194 167.386 493.292 164.832 490.765 163.103C488.264 161.347 485.178 160.469 481.506 160.469C477.835 160.469 474.736 161.347 472.208 163.103C469.707 164.832 467.805 167.386 466.502 170.765C465.225 174.117 464.586 178.241 464.586 183.136C464.586 188.031 465.225 192.168 466.502 195.547C467.805 198.899 469.707 201.453 472.208 203.209C474.736 204.938 477.835 205.803 481.506 205.803C485.178 205.803 488.264 204.938 490.765 203.209C493.292 201.453 495.194 198.899 496.471 195.547C497.775 192.168 498.427 188.031 498.427 183.136ZM531.519 224V142.272H566.797C572.862 142.272 578.17 143.469 582.719 145.863C587.269 148.258 590.807 151.623 593.334 155.959C595.862 160.296 597.126 165.364 597.126 171.164C597.126 177.017 595.822 182.085 593.215 186.368C590.634 190.651 587.003 193.95 582.32 196.265C577.664 198.58 572.224 199.737 565.998 199.737H544.928V182.497H561.529C564.136 182.497 566.358 182.045 568.193 181.14C570.056 180.209 571.479 178.892 572.463 177.19C573.474 175.487 573.98 173.478 573.98 171.164C573.98 168.823 573.474 166.827 572.463 165.178C571.479 163.502 570.056 162.225 568.193 161.347C566.358 160.442 564.136 159.99 561.529 159.99H553.707V224H531.519ZM649.323 167.812C649.11 165.151 648.113 163.076 646.33 161.586C644.574 160.096 641.901 159.352 638.309 159.352C636.021 159.352 634.145 159.631 632.682 160.19C631.246 160.722 630.181 161.453 629.49 162.384C628.798 163.316 628.439 164.38 628.412 165.577C628.359 166.561 628.532 167.453 628.931 168.251C629.357 169.022 630.022 169.727 630.926 170.366C631.831 170.978 632.988 171.536 634.398 172.042C635.808 172.547 637.484 173 639.426 173.399L646.131 174.835C650.653 175.793 654.524 177.057 657.743 178.626C660.963 180.196 663.596 182.045 665.645 184.173C667.693 186.275 669.197 188.643 670.154 191.277C671.139 193.911 671.644 196.784 671.671 199.896C671.644 205.271 670.301 209.82 667.64 213.545C664.98 217.269 661.175 220.102 656.227 222.045C651.305 223.987 645.386 224.958 638.469 224.958C631.365 224.958 625.166 223.907 619.872 221.805C614.605 219.703 610.507 216.471 607.581 212.108C604.681 207.718 603.218 202.105 603.191 195.267H624.262C624.395 197.768 625.02 199.87 626.138 201.573C627.255 203.275 628.825 204.566 630.846 205.443C632.895 206.321 635.329 206.76 638.149 206.76C640.517 206.76 642.499 206.468 644.095 205.882C645.692 205.297 646.902 204.486 647.727 203.448C648.552 202.411 648.977 201.227 649.004 199.896C648.977 198.646 648.565 197.555 647.767 196.624C646.995 195.666 645.718 194.815 643.936 194.07C642.153 193.299 639.746 192.58 636.713 191.915L628.572 190.159C621.335 188.59 615.629 185.969 611.452 182.298C607.302 178.6 605.24 173.558 605.266 167.173C605.24 161.985 606.623 157.449 609.417 153.565C612.237 149.654 616.134 146.608 621.109 144.426C626.111 142.245 631.844 141.154 638.309 141.154C644.907 141.154 650.613 142.258 655.429 144.466C660.244 146.675 663.956 149.787 666.563 153.805C669.197 157.795 670.527 162.464 670.553 167.812H649.323Z" fill="black"/>
</svg>
