<svg width="690" height="272" viewBox="0 0 690 272" fill="none" xmlns="http://www.w3.org/2000/svg">
<path fill-rule="evenodd" clip-rule="evenodd" d="M136 0C60.8892 0 0 60.8892 0 136C0 211.111 60.8892 272 136 272C211.111 272 272 211.111 272 136C272 60.8892 211.111 0 136 0ZM34.8718 136C34.8718 80.1485 80.1485 34.8718 136 34.8718C191.852 34.8718 237.128 80.1485 237.128 136C237.128 191.852 191.852 237.128 136 237.128C125.044 237.128 114.495 235.386 104.615 232.164V194.366C113.957 199.4 124.645 202.256 136 202.256C172.593 202.256 202.256 172.593 202.256 136C202.256 99.4076 172.593 69.7436 136 69.7436C99.4076 69.7436 69.7436 99.4076 69.7436 136V212.403C48.381 193.861 34.8718 166.507 34.8718 136ZM136 104.615C118.667 104.615 104.615 118.667 104.615 136C104.615 153.333 118.667 167.385 136 167.385C153.333 167.385 167.385 153.333 167.385 136C167.385 118.667 153.333 104.615 136 104.615Z" fill="#F83CED"/>
<path fill-rule="evenodd" clip-rule="evenodd" d="M143 8C72.3075 8 15 65.3075 15 136C15 206.693 72.3075 264 143 264C213.693 264 271 206.693 271 136C271 65.3075 213.693 8 143 8ZM47.8205 136C47.8205 83.4339 90.4339 40.8205 143 40.8205C195.567 40.8205 238.179 83.4339 238.179 136C238.179 188.567 195.567 231.179 143 231.179C132.689 231.179 122.76 229.54 113.462 226.507V190.932C122.253 195.67 132.313 198.359 143 198.359C177.441 198.359 205.359 170.441 205.359 136C205.359 101.56 177.441 73.641 143 73.641C108.56 73.641 80.641 101.56 80.641 136V207.908C60.5351 190.457 47.8205 164.713 47.8205 136ZM143 106.462C126.686 106.462 113.462 119.686 113.462 136C113.462 152.313 126.686 165.538 143 165.538C159.313 165.538 172.538 152.313 172.538 136C172.538 119.686 159.313 106.462 143 106.462Z" fill="white"/>
<path d="M387.442 81.1358C387.442 90.2344 385.673 97.9098 382.135 104.162C378.596 110.387 373.821 115.109 367.808 118.329C361.796 121.521 355.091 123.117 347.695 123.117C340.246 123.117 333.515 121.508 327.503 118.289C321.517 115.043 316.754 110.307 313.216 104.082C309.704 97.83 307.948 90.1812 307.948 81.1358C307.948 72.0371 309.704 64.3751 313.216 58.1496C316.754 51.8976 321.517 47.1754 327.503 43.9828C333.515 40.7637 340.246 39.1542 347.695 39.1542C355.091 39.1542 361.796 40.7637 367.808 43.9828C373.821 47.1754 378.596 51.8976 382.135 58.1496C385.673 64.3751 387.442 72.0371 387.442 81.1358ZM364.616 81.1358C364.616 76.2406 363.964 72.1169 362.66 68.7648C361.383 65.386 359.481 62.832 356.954 61.1027C354.453 59.3468 351.367 58.4689 347.695 58.4689C344.024 58.4689 340.924 59.3468 338.397 61.1027C335.896 62.832 333.994 65.386 332.69 68.7648C331.413 72.1169 330.775 76.2406 330.775 81.1358C330.775 86.031 331.413 90.1679 332.69 93.5467C333.994 96.8988 335.896 99.4528 338.397 101.209C340.924 102.938 344.024 103.803 347.695 103.803C351.367 103.803 354.453 102.938 356.954 101.209C359.481 99.4528 361.383 96.8988 362.66 93.5467C363.964 90.1679 364.616 86.031 364.616 81.1358ZM397.708 122V40.2715H432.985C439.051 40.2715 444.359 41.4687 448.908 43.8631C453.457 46.2575 456.996 49.623 459.523 53.9595C462.051 58.296 463.314 63.3641 463.314 69.1638C463.314 75.0168 462.011 80.0849 459.403 84.3682C456.823 88.6515 453.191 91.9504 448.509 94.265C443.853 96.5796 438.413 97.7369 432.187 97.7369H411.117V80.4973H427.718C430.325 80.4973 432.546 80.045 434.382 79.1404C436.244 78.2093 437.668 76.8924 438.652 75.1897C439.663 73.487 440.169 71.4784 440.169 69.1638C440.169 66.8226 439.663 64.8273 438.652 63.1779C437.668 61.5018 436.244 60.2248 434.382 59.3468C432.546 58.4423 430.325 57.99 427.718 57.99H419.896V122H397.708ZM471.455 122V40.2715H530.357V58.1496H493.643V72.1967H527.324V90.0748H493.643V104.122H530.198V122H471.455ZM612.076 40.2715V122H593.559L564.028 79.0606H563.549V122H541.361V40.2715H560.197L589.249 83.0513H589.888V40.2715H612.076ZM308.268 232V150.272H343.545C349.611 150.272 354.918 151.469 359.468 153.863C364.017 156.258 367.555 159.623 370.083 163.959C372.61 168.296 373.874 173.364 373.874 179.164C373.874 185.017 372.57 190.085 369.963 194.368C367.382 198.651 363.751 201.95 359.069 204.265C354.413 206.58 348.972 207.737 342.747 207.737H321.676V190.497H338.277C340.885 190.497 343.106 190.045 344.942 189.14C346.804 188.209 348.227 186.892 349.212 185.19C350.223 183.487 350.728 181.478 350.728 179.164C350.728 176.823 350.223 174.827 349.212 173.178C348.227 171.502 346.804 170.225 344.942 169.347C343.106 168.442 340.885 167.99 338.277 167.99H330.456V232H308.268ZM382.015 232V150.272H417.292C423.358 150.272 428.665 151.376 433.215 153.584C437.764 155.792 441.303 158.971 443.83 163.121C446.357 167.272 447.621 172.247 447.621 178.046C447.621 183.899 446.317 188.834 443.71 192.852C441.13 196.869 437.498 199.902 432.816 201.95C428.16 203.999 422.719 205.023 416.494 205.023H395.423V187.784H412.024C414.632 187.784 416.853 187.464 418.689 186.826C420.551 186.161 421.974 185.11 422.959 183.673C423.97 182.237 424.475 180.361 424.475 178.046C424.475 175.705 423.97 173.803 422.959 172.34C421.974 170.85 420.551 169.759 418.689 169.067C416.853 168.349 414.632 167.99 412.024 167.99H404.203V232H382.015ZM429.903 194.488L450.335 232H426.231L406.278 194.488H429.903ZM536.253 191.136C536.253 200.234 534.484 207.91 530.946 214.162C527.407 220.387 522.632 225.109 516.619 228.329C510.607 231.521 503.902 233.117 496.506 233.117C489.057 233.117 482.326 231.508 476.314 228.289C470.328 225.043 465.566 220.307 462.027 214.082C458.516 207.83 456.76 200.181 456.76 191.136C456.76 182.037 458.516 174.375 462.027 168.15C465.566 161.898 470.328 157.175 476.314 153.983C482.326 150.764 489.057 149.154 496.506 149.154C503.902 149.154 510.607 150.764 516.619 153.983C522.632 157.175 527.407 161.898 530.946 168.15C534.484 174.375 536.253 182.037 536.253 191.136ZM513.427 191.136C513.427 186.241 512.775 182.117 511.471 178.765C510.194 175.386 508.292 172.832 505.765 171.103C503.264 169.347 500.178 168.469 496.506 168.469C492.835 168.469 489.736 169.347 487.208 171.103C484.707 172.832 482.805 175.386 481.502 178.765C480.225 182.117 479.586 186.241 479.586 191.136C479.586 196.031 480.225 200.168 481.502 203.547C482.805 206.899 484.707 209.453 487.208 211.209C489.736 212.938 492.835 213.803 496.506 213.803C500.178 213.803 503.264 212.938 505.765 211.209C508.292 209.453 510.194 206.899 511.471 203.547C512.775 200.168 513.427 196.031 513.427 191.136ZM546.519 232V150.272H581.797C587.862 150.272 593.17 151.469 597.719 153.863C602.269 156.258 605.807 159.623 608.334 163.959C610.862 168.296 612.126 173.364 612.126 179.164C612.126 185.017 610.822 190.085 608.215 194.368C605.634 198.651 602.003 201.95 597.32 204.265C592.664 206.58 587.224 207.737 580.998 207.737H559.928V190.497H576.529C579.136 190.497 581.358 190.045 583.193 189.14C585.056 188.209 586.479 186.892 587.463 185.19C588.474 183.487 588.98 181.478 588.98 179.164C588.98 176.823 588.474 174.827 587.463 173.178C586.479 171.502 585.056 170.225 583.193 169.347C581.358 168.442 579.136 167.99 576.529 167.99H568.707V232H546.519ZM664.323 175.812C664.11 173.151 663.113 171.076 661.33 169.586C659.574 168.096 656.901 167.352 653.309 167.352C651.021 167.352 649.145 167.631 647.682 168.19C646.246 168.722 645.181 169.453 644.49 170.384C643.798 171.316 643.439 172.38 643.412 173.577C643.359 174.561 643.532 175.453 643.931 176.251C644.357 177.022 645.022 177.727 645.926 178.366C646.831 178.978 647.988 179.536 649.398 180.042C650.808 180.547 652.484 181 654.426 181.399L661.131 182.835C665.653 183.793 669.524 185.057 672.743 186.626C675.963 188.196 678.596 190.045 680.645 192.173C682.693 194.275 684.197 196.643 685.154 199.277C686.139 201.911 686.644 204.784 686.671 207.896C686.644 213.271 685.301 217.82 682.64 221.545C679.98 225.269 676.175 228.102 671.227 230.045C666.305 231.987 660.386 232.958 653.469 232.958C646.365 232.958 640.166 231.907 634.872 229.805C629.605 227.703 625.507 224.471 622.581 220.108C619.681 215.718 618.218 210.105 618.191 203.267H639.262C639.395 205.768 640.02 207.87 641.138 209.573C642.255 211.275 643.825 212.566 645.846 213.443C647.895 214.321 650.329 214.76 653.149 214.76C655.517 214.76 657.499 214.468 659.095 213.882C660.692 213.297 661.902 212.486 662.727 211.448C663.552 210.411 663.977 209.227 664.004 207.896C663.977 206.646 663.565 205.555 662.767 204.624C661.995 203.666 660.718 202.815 658.936 202.07C657.153 201.299 654.746 200.58 651.713 199.915L643.572 198.159C636.335 196.59 630.629 193.969 626.452 190.298C622.302 186.6 620.24 181.558 620.266 175.173C620.24 169.985 621.623 165.449 624.417 161.565C627.237 157.654 631.134 154.608 636.109 152.426C641.111 150.245 646.844 149.154 653.309 149.154C659.907 149.154 665.613 150.258 670.429 152.466C675.244 154.675 678.956 157.787 681.563 161.805C684.197 165.795 685.527 170.464 685.553 175.812H664.323Z" fill="white"/>
</svg>
