<svg width="49" height="49" viewBox="0 0 49 49" fill="none" xmlns="http://www.w3.org/2000/svg">
<path fill-rule="evenodd" clip-rule="evenodd" d="M24.5 0.5C11.2452 0.5 0.5 11.2452 0.5 24.5C0.5 37.7549 11.2452 48.5 24.5 48.5C37.7549 48.5 48.5 37.7549 48.5 24.5C48.5 11.2452 37.7549 0.5 24.5 0.5ZM6.65385 24.5C6.65385 14.6439 14.6439 6.65385 24.5 6.65385C34.3562 6.65385 42.3462 14.6439 42.3462 24.5C42.3462 34.3562 34.3562 42.3462 24.5 42.3462C22.5666 42.3462 20.7051 42.0387 18.9615 41.4701V34.7998C20.61 35.6882 22.4961 36.1923 24.5 36.1923C30.9576 36.1923 36.1923 30.9576 36.1923 24.5C36.1923 18.0425 30.9576 12.8077 24.5 12.8077C18.0425 12.8077 12.8077 18.0425 12.8077 24.5V37.9828C9.03782 34.7107 6.65385 29.8836 6.65385 24.5ZM24.5 18.9615C21.4412 18.9615 18.9615 21.4412 18.9615 24.5C18.9615 27.5587 21.4412 30.0385 24.5 30.0385C27.5587 30.0385 30.0385 27.5587 30.0385 24.5C30.0385 21.4412 27.5587 18.9615 24.5 18.9615Z" fill="#4263EB"/>
</svg>
