<svg width="546" height="117" viewBox="0 0 546 117" fill="none" xmlns="http://www.w3.org/2000/svg">
<path d="M0.0400391 114V112.4H7.32004V3.59998H0.0400391V1.99998H25.48L49.72 69.68H48.68V3.59998H41.48V1.99998H57.4V3.59998H50.44V114H45.08L7.80004 12.56H9.08004V112.4H16.6V114H0.0400391Z" fill="black"/>
<path d="M60.365 114V112.4H67.885V3.59998H60.365V1.99998H109.965V28.72H108.365C108.365 24.4 107.645 20.32 106.205 16.48C104.818 12.64 102.845 9.54666 100.285 7.19999C97.7784 4.79999 94.845 3.59998 91.485 3.59998H87.245V57.12H102.045V47.52H103.645V68.16H102.045V58.72H87.245V112.4H91.325C94.685 112.4 97.645 111.2 100.205 108.8C102.765 106.347 104.765 103.2 106.205 99.36C107.645 95.4667 108.365 91.36 108.365 87.04H109.965V114H60.365Z" fill="black"/>
<path d="M142.931 114V112.4H149.171L118.771 3.59998H113.411V1.99998H145.331V3.59998H139.731L170.131 112.4H175.731V114H142.931ZM114.211 114V112.4H121.811L140.291 60.96L141.571 62.64L123.571 112.4H130.451V114H114.211ZM145.971 53.2L144.691 51.36L161.971 3.59998H155.491V1.99998H171.011V3.59998H163.731L145.971 53.2Z" fill="black"/>
<path d="M188.251 114V112.4H195.371V3.59998H193.291C190.305 3.59998 187.745 4.79999 185.611 7.19999C183.531 9.59999 181.958 12.72 180.891 16.56C179.825 20.3467 179.291 24.4 179.291 28.72H177.691V1.99998H232.251V28.72H230.651C230.651 24.4 230.118 20.3467 229.051 16.56C227.985 12.72 226.411 9.59999 224.331 7.19999C222.251 4.79999 219.691 3.59998 216.651 3.59998H214.571V112.4H222.091V114H188.251Z" fill="black"/>
<path d="M284.274 116.16C281.98 116.16 279.874 115.893 277.954 115.36C276.087 114.88 274.407 114.32 272.914 113.68C271.42 113.04 270.114 112.48 268.994 112C267.927 111.467 267.047 111.2 266.354 111.2C265.234 111.2 264.674 112.133 264.674 114H263.234V86.64H264.834C264.94 87.92 265.287 89.68 265.874 91.92C266.514 94.16 267.394 96.56 268.514 99.12C269.634 101.627 270.994 104.053 272.594 106.4C274.194 108.693 275.98 110.587 277.954 112.08C279.927 113.573 282.06 114.32 284.354 114.32C286.807 114.32 288.78 113.76 290.274 112.64C291.82 111.467 292.94 109.787 293.634 107.6C294.38 105.413 294.754 102.773 294.754 99.68C294.754 96.2667 294.007 92.7733 292.514 89.2C291.02 85.6267 288.994 81.92 286.434 78.08C283.927 74.24 281.1 70.24 277.954 66.08C273.954 60.8 270.807 56.0267 268.514 51.76C266.274 47.44 264.674 43.3867 263.714 39.6C262.807 35.76 262.354 31.92 262.354 28.08C262.354 21.52 263.447 16.2133 265.634 12.16C267.82 8.05332 270.567 5.03999 273.874 3.11999C277.18 1.19999 280.487 0.23999 283.794 0.23999C286.247 0.23999 288.487 0.586657 290.514 1.27999C292.54 1.97333 294.3 2.69332 295.794 3.43999C297.34 4.13332 298.54 4.47999 299.394 4.47999C300.087 4.47999 300.594 4.31999 300.914 3.99998C301.234 3.62665 301.394 2.95999 301.394 1.99998H302.834V29.2H301.234C301.074 27.3867 300.567 24.9867 299.714 22C298.914 19.0133 297.767 16 296.274 12.96C294.78 9.86665 292.967 7.27998 290.834 5.19999C288.754 3.06665 286.38 1.99998 283.714 1.99998C280.994 1.99998 278.834 3.06665 277.234 5.19999C275.634 7.27998 274.834 10.8266 274.834 15.84C274.834 19.5733 275.447 23.0933 276.674 26.4C277.954 29.7067 279.82 33.12 282.274 36.64C284.78 40.16 287.847 44.1333 291.474 48.56C294.887 52.72 297.82 56.8533 300.274 60.96C302.727 65.0133 304.594 69.2 305.874 73.52C307.154 77.7867 307.794 82.32 307.794 87.12C307.794 92.56 307.02 97.1467 305.474 100.88C303.927 104.613 301.954 107.6 299.554 109.84C297.154 112.027 294.594 113.627 291.874 114.64C289.207 115.653 286.674 116.16 284.274 116.16Z" fill="black"/>
<path d="M322.614 114V112.4H329.734V3.59998H327.654C324.667 3.59998 322.107 4.79999 319.974 7.19999C317.894 9.59999 316.32 12.72 315.254 16.56C314.187 20.3467 313.654 24.4 313.654 28.72H312.054V1.99998H366.614V28.72H365.014C365.014 24.4 364.48 20.3467 363.414 16.56C362.347 12.72 360.774 9.59999 358.694 7.19999C356.614 4.79999 354.054 3.59998 351.014 3.59998H348.934V112.4H356.454V114H322.614Z" fill="black"/>
<path d="M396.419 115.76C391.139 115.76 386.392 113.493 382.179 108.96C377.965 104.373 374.659 97.7867 372.259 89.2C369.859 80.6133 368.659 70.2667 368.659 58.16C368.659 45.9467 369.859 35.5467 372.259 26.96C374.659 18.32 377.965 11.7067 382.179 7.11999C386.392 2.53332 391.139 0.23999 396.419 0.23999C401.805 0.23999 406.605 2.53332 410.819 7.11999C415.032 11.7067 418.339 18.32 420.739 26.96C423.192 35.5467 424.419 45.9467 424.419 58.16C424.419 70.2667 423.192 80.6133 420.739 89.2C418.339 97.7867 415.032 104.373 410.819 108.96C406.605 113.493 401.805 115.76 396.419 115.76ZM396.419 114.16C397.965 114.16 399.219 112.88 400.179 110.32C401.139 107.707 401.885 103.947 402.419 99.04C402.952 94.1333 403.299 88.24 403.459 81.36C403.672 74.4267 403.779 66.6933 403.779 58.16C403.779 49.5733 403.672 41.84 403.459 34.96C403.299 28.0267 402.952 22.08 402.419 17.12C401.885 12.16 401.139 8.37332 400.179 5.75999C399.219 3.14665 397.965 1.83999 396.419 1.83999C394.872 1.83999 393.619 3.14665 392.659 5.75999C391.699 8.37332 390.979 12.16 390.499 17.12C390.019 22.08 389.672 28.0267 389.459 34.96C389.299 41.84 389.219 49.5733 389.219 58.16C389.219 66.6933 389.299 74.4267 389.459 81.36C389.672 88.24 390.019 94.1333 390.499 99.04C390.979 103.947 391.699 107.707 392.659 110.32C393.619 112.88 394.872 114.16 396.419 114.16Z" fill="black"/>
<path d="M483.551 115.36C479.125 115.36 475.711 114.453 473.311 112.64C470.911 110.827 469.258 108.32 468.351 105.12C467.498 101.867 467.071 98.1333 467.071 93.92C467.071 90.3467 467.231 86.8 467.551 83.28C467.871 79.7067 468.031 76.4267 468.031 73.44C468.031 69.8667 467.738 66.88 467.151 64.48C466.618 62.08 465.631 60.2667 464.191 59.04C462.751 57.76 460.645 57.12 457.871 57.12H454.431V112.4H461.551V114H427.871V112.4H435.311V3.59998H427.871V1.99998H462.831C467.525 1.99998 471.791 2.90665 475.631 4.71999C479.471 6.47999 482.511 9.27999 484.751 13.12C487.045 16.9067 488.191 21.8667 488.191 28C488.191 33.0133 487.391 37.2533 485.791 40.72C484.245 44.1333 482.218 46.9067 479.711 49.04C477.205 51.1733 474.511 52.8267 471.631 54C468.751 55.12 466.005 55.8667 463.391 56.24C470.271 56.56 475.391 57.8133 478.751 60C482.111 62.1867 484.325 65.4133 485.391 69.68C486.511 73.9467 487.071 79.4133 487.071 86.08C487.071 88.1067 487.018 90.16 486.911 92.24C486.805 94.2667 486.751 96.24 486.751 98.16C486.751 100.347 486.831 102.507 486.991 104.64C487.205 106.72 487.578 108.427 488.111 109.76C488.645 111.093 489.418 111.76 490.431 111.76C490.965 111.76 491.445 111.573 491.871 111.2C492.298 110.827 492.538 110.373 492.591 109.84H494.111C493.951 111.173 493.285 112.24 492.111 113.04C490.938 113.84 489.551 114.427 487.951 114.8C486.351 115.173 484.885 115.36 483.551 115.36ZM454.431 55.52H458.431C460.778 55.52 462.618 54.4267 463.951 52.24C465.338 50 466.351 46.8533 466.991 42.8C467.631 38.7467 467.951 33.92 467.951 28.32C467.951 23.0933 467.658 18.64 467.071 14.96C466.538 11.28 465.578 8.47999 464.191 6.55999C462.805 4.58665 460.938 3.59998 458.591 3.59998H454.431V55.52Z" fill="black"/>
<path d="M495.853 114V112.4H503.373V3.59998H495.853V1.99998H545.453V28.72H543.853C543.853 24.4 543.133 20.32 541.693 16.48C540.306 12.64 538.333 9.54666 535.773 7.19999C533.266 4.79999 530.333 3.59998 526.973 3.59998H522.733V57.12H537.533V47.52H539.133V68.16H537.533V58.72H522.733V112.4H526.813C530.173 112.4 533.133 111.2 535.693 108.8C538.253 106.347 540.253 103.2 541.693 99.36C543.133 95.4667 543.853 91.36 543.853 87.04H545.453V114H495.853Z" fill="black"/>
</svg>
