<svg width="712" height="131" viewBox="0 0 712 131" fill="none" xmlns="http://www.w3.org/2000/svg">
<path d="M183.684 105.405C177.767 105.405 172.637 104.145 168.296 101.624C163.99 99.0683 160.664 95.5321 158.318 91.0156C156.007 86.4641 154.852 81.1773 154.852 75.1553C154.852 69.0633 156.007 63.759 158.318 59.2425C160.664 54.691 163.99 51.1548 168.296 48.634C172.637 46.0781 177.767 44.8002 183.684 44.8002C189.636 44.8002 194.765 46.0781 199.071 48.634C203.413 51.1548 206.739 54.691 209.05 59.2425C211.395 63.759 212.568 69.0633 212.568 75.1553C212.568 81.1773 211.395 86.4641 209.05 91.0156C206.739 95.5321 203.413 99.0683 199.071 101.624C194.765 104.145 189.636 105.405 183.684 105.405ZM183.789 92.6962C186.485 92.6962 188.743 91.9434 190.563 90.4379C192.384 88.8974 193.75 86.7967 194.66 84.1358C195.605 81.4749 196.078 78.4464 196.078 75.0503C196.078 71.6191 195.605 68.5906 194.66 65.9647C193.75 63.3389 192.384 61.2732 190.563 59.7677C188.743 58.2622 186.485 57.5094 183.789 57.5094C181.058 57.5094 178.765 58.2622 176.909 59.7677C175.088 61.2732 173.705 63.3389 172.76 65.9647C171.85 68.5906 171.395 71.6191 171.395 75.0503C171.395 78.4464 171.85 81.4749 172.76 84.1358C173.705 86.7967 175.088 88.8974 176.909 90.4379C178.765 91.9434 181.058 92.6962 183.789 92.6962ZM219.763 126.202V45.5354H235.729V55.4612H236.464C237.199 53.8507 238.249 52.2227 239.615 50.5771C240.98 48.9316 242.766 47.5661 244.972 46.4808C247.177 45.3604 249.908 44.8002 253.164 44.8002C257.471 44.8002 261.41 45.9206 264.981 48.1613C268.587 50.367 271.475 53.7107 273.646 58.1922C275.817 62.6736 276.902 68.2755 276.902 74.9978C276.902 81.5099 275.852 87.0243 273.751 91.5408C271.65 96.0223 268.797 99.4184 265.191 101.729C261.62 104.04 257.593 105.195 253.112 105.195C249.961 105.195 247.282 104.67 245.077 103.62C242.871 102.569 241.068 101.257 239.667 99.681C238.302 98.0704 237.234 96.4599 236.464 94.8494H235.991V126.202H219.763ZM247.965 92.276C250.626 92.276 252.867 91.5408 254.687 90.0703C256.508 88.5998 257.891 86.5691 258.836 83.9782C259.782 81.3524 260.254 78.3414 260.254 74.9452C260.254 71.5491 259.782 68.5731 258.836 66.0173C257.926 63.4264 256.56 61.3957 254.74 59.9252C252.919 58.4547 250.661 57.7195 247.965 57.7195C245.339 57.7195 243.098 58.4372 241.243 59.8727C239.422 61.2732 238.022 63.2688 237.041 65.8597C236.096 68.4156 235.623 71.4441 235.623 74.9452C235.623 78.4114 236.114 81.4399 237.094 84.0308C238.074 86.6216 239.475 88.6523 241.295 90.1228C243.151 91.5583 245.374 92.276 247.965 92.276ZM310.776 105.405C304.754 105.405 299.555 104.18 295.178 101.729C290.802 99.2783 287.441 95.7947 285.095 91.2782C282.784 86.7267 281.629 81.3524 281.629 75.1553C281.629 69.1333 282.784 63.8465 285.095 59.295C287.441 54.7435 290.732 51.1898 294.968 48.634C299.24 46.0781 304.246 44.8002 309.988 44.8002C313.875 44.8002 317.498 45.4304 320.859 46.6908C324.22 47.9162 327.161 49.7719 329.682 52.2577C332.203 54.7085 334.164 57.807 335.564 61.5533C336.965 65.2645 337.665 69.6235 337.665 74.6301V79.0416H288.088V69.0108H329.787L322.225 71.6366C322.225 68.6606 321.77 66.0698 320.859 63.864C319.949 61.6583 318.584 59.9602 316.763 58.7698C314.977 57.5444 312.754 56.9317 310.093 56.9317C307.432 56.9317 305.174 57.5444 303.319 58.7698C301.498 59.9953 300.097 61.6583 299.117 63.759C298.137 65.8597 297.647 68.2755 297.647 71.0064V78.0963C297.647 81.2823 298.207 84.0133 299.327 86.289C300.448 88.5298 302.006 90.2628 304.001 91.4882C306.032 92.6786 308.36 93.2738 310.986 93.2738C312.807 93.2738 314.452 93.0113 315.923 92.4861C317.393 91.9609 318.654 91.1906 319.704 90.1753C320.789 89.16 321.595 87.9346 322.12 86.4991L337.14 87.4969C336.405 91.1031 334.864 94.2542 332.518 96.9501C330.207 99.611 327.214 101.694 323.538 103.2C319.862 104.67 315.608 105.405 310.776 105.405ZM360.878 70.3237V104.25H344.65V45.5354H360.615V55.9864H361.193C362.523 52.5203 364.641 49.7894 367.547 47.7937C370.453 45.798 374.095 44.8002 378.471 44.8002C382.532 44.8002 386.069 45.693 389.08 47.4786C392.126 49.2642 394.489 51.8025 396.169 55.0936C397.85 58.3847 398.69 62.3235 398.69 66.9101V104.25H382.462V69.7985C382.462 66.2273 381.535 63.4264 379.679 61.3957C377.823 59.33 375.268 58.2972 372.011 58.2972C369.841 58.2972 367.915 58.7874 366.234 59.7677C364.554 60.713 363.241 62.0785 362.296 63.864C361.35 65.6496 360.878 67.8029 360.878 70.3237ZM429.728 126.202V45.5354H445.693V55.4612H446.429C447.164 53.8507 448.214 52.2227 449.58 50.5771C450.945 48.9316 452.731 47.5661 454.937 46.4808C457.142 45.3604 459.873 44.8002 463.129 44.8002C467.436 44.8002 471.375 45.9206 474.946 48.1613C478.552 50.367 481.44 53.7107 483.611 58.1922C485.782 62.6736 486.867 68.2755 486.867 74.9978C486.867 81.5099 485.817 87.0243 483.716 91.5408C481.615 96.0223 478.762 99.4184 475.156 101.729C471.585 104.04 467.558 105.195 463.077 105.195C459.926 105.195 457.247 104.67 455.042 103.62C452.836 102.569 451.033 101.257 449.632 99.681C448.267 98.0704 447.199 96.4599 446.429 94.8494H445.956V126.202H429.728ZM457.93 92.276C460.591 92.276 462.832 91.5408 464.652 90.0703C466.473 88.5998 467.856 86.5691 468.801 83.9782C469.746 81.3524 470.219 78.3414 470.219 74.9452C470.219 71.5491 469.746 68.5731 468.801 66.0173C467.891 63.4264 466.525 61.3957 464.705 59.9252C462.884 58.4547 460.626 57.7195 457.93 57.7195C455.304 57.7195 453.063 58.4372 451.208 59.8727C449.387 61.2732 447.987 63.2688 447.006 65.8597C446.061 68.4156 445.588 71.4441 445.588 74.9452C445.588 78.4114 446.079 81.4399 447.059 84.0308C448.039 86.6216 449.44 88.6523 451.26 90.1228C453.116 91.5583 455.339 92.276 457.93 92.276ZM494.01 104.25V45.5354H509.712V55.8289H510.343C511.428 52.1877 513.231 49.4392 515.752 47.5836C518.273 45.693 521.161 44.7477 524.417 44.7477C525.257 44.7477 526.133 44.8002 527.043 44.9052C527.988 44.9753 528.829 45.1153 529.564 45.3254V59.7152C528.794 59.4701 527.726 59.2775 526.36 59.1375C525.03 58.9624 523.787 58.8749 522.632 58.8749C520.286 58.8749 518.168 59.4001 516.277 60.4504C514.386 61.4657 512.898 62.9012 511.813 64.7568C510.763 66.5774 510.237 68.6781 510.237 71.0589V104.25H494.01ZM558.133 105.405C552.216 105.405 547.087 104.145 542.746 101.624C538.439 99.0683 535.113 95.5321 532.767 91.0156C530.457 86.4641 529.301 81.1773 529.301 75.1553C529.301 69.0633 530.457 63.759 532.767 59.2425C535.113 54.691 538.439 51.1548 542.746 48.634C547.087 46.0781 552.216 44.8002 558.133 44.8002C564.085 44.8002 569.215 46.0781 573.521 48.634C577.863 51.1548 581.189 54.691 583.499 59.2425C585.845 63.759 587.018 69.0633 587.018 75.1553C587.018 81.1773 585.845 86.4641 583.499 91.0156C581.189 95.5321 577.863 99.0683 573.521 101.624C569.215 104.145 564.085 105.405 558.133 105.405ZM558.238 92.6962C560.934 92.6962 563.193 91.9434 565.013 90.4379C566.834 88.8974 568.199 86.7967 569.11 84.1358C570.055 81.4749 570.528 78.4464 570.528 75.0503C570.528 71.6191 570.055 68.5906 569.11 65.9647C568.199 63.3389 566.834 61.2732 565.013 59.7677C563.193 58.2622 560.934 57.5094 558.238 57.5094C555.508 57.5094 553.214 58.2622 551.359 59.7677C549.538 61.2732 548.155 63.3389 547.21 65.9647C546.299 68.5906 545.844 71.6191 545.844 75.0503C545.844 78.4464 546.299 81.4749 547.21 84.1358C548.155 86.7967 549.538 88.8974 551.359 90.4379C553.214 91.9434 555.508 92.6962 558.238 92.6962ZM594.213 126.202V45.5354H610.178V55.4612H610.913C611.649 53.8507 612.699 52.2227 614.065 50.5771C615.43 48.9316 617.216 47.5661 619.421 46.4808C621.627 45.3604 624.358 44.8002 627.614 44.8002C631.92 44.8002 635.859 45.9206 639.43 48.1613C643.037 50.367 645.925 53.7107 648.096 58.1922C650.267 62.6736 651.352 68.2755 651.352 74.9978C651.352 81.5099 650.302 87.0243 648.201 91.5408C646.1 96.0223 643.247 99.4184 639.641 101.729C636.069 104.04 632.043 105.195 627.562 105.195C624.41 105.195 621.732 104.67 619.526 103.62C617.321 102.569 615.518 101.257 614.117 99.681C612.752 98.0704 611.684 96.4599 610.913 94.8494H610.441V126.202H594.213ZM622.415 92.276C625.076 92.276 627.316 91.5408 629.137 90.0703C630.958 88.5998 632.341 86.5691 633.286 83.9782C634.231 81.3524 634.704 78.3414 634.704 74.9452C634.704 71.5491 634.231 68.5731 633.286 66.0173C632.376 63.4264 631.01 61.3957 629.19 59.9252C627.369 58.4547 625.111 57.7195 622.415 57.7195C619.789 57.7195 617.548 58.4372 615.693 59.8727C613.872 61.2732 612.472 63.2688 611.491 65.8597C610.546 68.4156 610.073 71.4441 610.073 74.9452C610.073 78.4114 610.563 81.4399 611.544 84.0308C612.524 86.6216 613.924 88.6523 615.745 90.1228C617.601 91.5583 619.824 92.276 622.415 92.276ZM707.231 62.2885L692.368 63.1813C691.983 61.3257 690.95 59.7327 689.27 58.4022C687.589 57.0368 685.331 56.354 682.495 56.354C679.974 56.354 677.856 56.8792 676.14 57.9296C674.46 58.9799 673.619 60.3804 673.619 62.131C673.619 63.5314 674.162 64.7393 675.247 65.7547C676.368 66.735 678.276 67.5053 680.972 68.0654L691.633 70.1661C697.34 71.3215 701.594 73.1947 704.395 75.7855C707.196 78.3764 708.596 81.79 708.596 86.0264C708.596 89.9127 707.476 93.3089 705.235 96.2148C702.994 99.0858 699.913 101.344 695.992 102.99C692.071 104.6 687.572 105.405 682.495 105.405C674.722 105.405 668.525 103.777 663.904 100.521C659.317 97.2652 656.639 92.8537 655.868 87.2868L671.781 86.4466C672.306 88.8274 673.497 90.6305 675.352 91.8559C677.208 93.0813 679.589 93.694 682.495 93.694C685.331 93.694 687.624 93.1338 689.375 92.0134C691.16 90.8931 692.053 89.4751 692.053 87.7595C692.053 84.8535 689.532 82.8929 684.491 81.8775L674.355 79.7768C668.648 78.6215 664.394 76.6433 661.593 73.8424C658.792 71.0414 657.391 67.4527 657.391 63.0763C657.391 59.295 658.424 56.0389 660.49 53.308C662.556 50.5771 665.444 48.4764 669.155 47.0059C672.902 45.5354 677.278 44.8002 682.285 44.8002C689.707 44.8002 695.537 46.3757 699.773 49.5268C704.045 52.6428 706.53 56.8967 707.231 62.2885Z" fill="white"/>
<path fill-rule="evenodd" clip-rule="evenodd" d="M16.8032 65.2461C16.8032 38.6277 38.3816 17.0493 65 17.0493C91.6184 17.0493 113.197 38.6277 113.197 65.2461C113.197 91.8645 91.6184 113.443 65 113.443C59.315 113.443 53.86 112.459 48.7959 110.651V93.3152C53.5627 96.0726 59.0971 97.6508 65 97.6508C82.8986 97.6508 97.4082 83.1412 97.4082 65.2426C97.4082 47.3441 82.8986 32.8344 65 32.8344C47.1014 32.8344 32.5918 47.3441 32.5918 65.2426V65.2461V100.921C22.8925 92.1042 16.8032 79.3862 16.8032 65.2461ZM65 0.429688C29.2029 0.429688 0.183594 29.449 0.183594 65.2461C0.183594 101.043 29.2029 130.062 65 130.062C100.797 130.062 129.816 101.043 129.816 65.2461C129.816 29.449 100.797 0.429688 65 0.429688ZM65 49.8914C56.5217 49.8914 49.6487 56.7644 49.6487 65.2426C49.6487 73.7209 56.5217 80.5939 65 80.5939C73.4783 80.5939 80.3513 73.7209 80.3513 65.2426C80.3513 56.7644 73.4783 49.8914 65 49.8914Z" fill="white"/>
</svg>
